<svg width="20" height="16" fill="none" xmlns="http://www.w3.org/2000/svg"><path d="M19.999 1.9a8.33 8.33 0 01-2.357.635A4.063 4.063 0 0019.448.3a8.281 8.281 0 01-2.606.98A4.124 4.124 0 0014.513.054a4.162 4.162 0 00-2.605.424 4.065 4.065 0 00-1.804 1.898 3.978 3.978 0 00-.254 2.587 11.8 11.8 0 01-4.685-1.225A11.617 11.617 0 011.392.744a3.974 3.974 0 00-.555 2.03c0 1.4.724 2.637 1.825 3.36A4.14 4.14 0 01.804 5.63v.05a4 4 0 00.928 2.557A4.118 4.118 0 004.095 9.64a4.196 4.196 0 01-1.854.07 4.043 4.043 0 001.46 2.007 4.15 4.15 0 002.373.797 8.288 8.288 0 01-2.868 1.43A8.365 8.365 0 010 14.186 11.746 11.746 0 006.29 16c7.547 0 11.675-6.152 11.675-11.488 0-.174-.005-.35-.013-.522A8.262 8.262 0 0020 1.9h-.001z" fill="#F9FBFD"/></svg>