<svg viewBox="0 0 35 40" xmlns="http://www.w3.org/2000/svg">
<g filter="url(#filter0_d)">
<path d="M8.40549 16.3962L17.2165 9.93576C17.4162 9.8063 17.6711 9.8063 17.8708 9.93576L26.7254 16.3962V8.68818C26.7739 7.6312 25.9743 6.7343 24.9396 6.68484C24.9242 6.68407 24.9089 6.68356 24.8934 6.68322H10.2375C9.20189 6.70667 8.38094 7.58319 8.4039 8.6411C8.40423 8.6568 8.40473 8.67249 8.40549 8.68818V16.3962Z" fill="#011C40"/>
<path d="M19.7464 0H15.3845V5.34662H19.7464V0Z" />
<path d="M28.2956 30.1638L31 21.03L27.2052 18.3122L26.9434 18.1785L18.0016 11.8072V30.6094H17.5217L16.6929 30.5649V11.8072L4 21.03L6.79163 30.1193L8.4039 31.9904C8.4039 31.9904 9.7624 31.9904 11.1582 31.9904C11.1582 31.9904 16.2467 31.997 17.5218 31.9904C18.8198 32.012 21.1251 31.9904 21.1251 31.9904H26.8127L28.2956 30.1638Z" fill="#011C40"/>
</g>
<defs>
<filter id="filter0_d" x="0" y="0" width="35" height="40" filterUnits="userSpaceOnUse" color-interpolation-filters="sRGB">
<feFlood flood-opacity="0" result="BackgroundImageFix"/>
<feColorMatrix in="SourceAlpha" type="matrix" values="0 0 0 0 0 0 0 0 0 0 0 0 0 0 0 0 0 0 127 0"/>
<feOffset dy="4"/>
<feGaussianBlur stdDeviation="2"/>
<feColorMatrix type="matrix" values="0 0 0 0 0 0 0 0 0 0 0 0 0 0 0 0 0 0 0.25 0"/>
<feBlend mode="normal" in2="BackgroundImageFix" result="effect1_dropShadow"/>
<feBlend mode="normal" in="SourceGraphic" in2="effect1_dropShadow" result="shape"/>
</filter>
</defs>
</svg>
