<svg viewBox="0 0 70 38" xmlns="http://www.w3.org/2000/svg"><path fill-rule="evenodd" clip-rule="evenodd" d="M.904 31.125l13.769-18.582 3.766 2.013L27.404 0l5.585 6.659 2.078-1.704 8.054 10.22 5.716-6.813 15.977 22.763L49.42 11.769l-2.338 8.13 2.143 6.426-13.769-18.97-.15 6.473 7.814 17.297-14.614-26.79 4.222 14.48-5.91-14.092-3.247 9.369.649-6.117L16.1 30.04l.974-9.291-3.377-3.716L.904 31.125z"/><path fill-rule="evenodd" clip-rule="evenodd" d="M69.441 34.031C47.641 16.428 13.71 40.63 0 31.296c15.072 13.226 50.302-9.132 69.441 2.735z"/><path fill-rule="evenodd" clip-rule="evenodd" d="M70 35.416c-17.104-10.899-42.543 4.268-55.581.756 14.128 6.856 40.43-8.336 55.581-.756z"/></svg>