<svg width="38" height="20" viewBox="0 0 38 20" fill="none" xmlns="http://www.w3.org/2000/svg">
<path fill-rule="evenodd" clip-rule="evenodd" d="M0.49048 16.3816L7.96515 6.60151L10.01 7.66103L14.8757 0L17.9077 3.50464L19.0361 2.60806L23.408 7.98712L26.5107 4.40101L35.184 16.3816L26.828 6.19417L25.5587 10.4729L26.7222 13.8552L19.2475 3.87136L19.1666 7.27784L23.408 16.3816L15.4749 2.28197L17.7668 9.90238L14.5584 2.48574L12.7955 7.41663L13.1479 4.19722L8.74069 15.8111L9.26943 10.9211L7.43612 8.96517L0.49048 16.3816Z" fill="#F9FBFD"/>
<path fill-rule="evenodd" clip-rule="evenodd" d="M37.6968 17.9112C25.8623 8.64633 7.44206 21.3836 0 16.4716C8.18212 23.4324 27.3068 11.6655 37.6968 17.9112Z" fill="#F9FBFD"/>
<path fill-rule="evenodd" clip-rule="evenodd" d="M38 18.6398C28.7148 12.9037 14.9051 20.8862 7.82741 19.0377C15.4968 22.6465 29.7747 14.6506 38 18.6398Z" fill="#F9FBFD"/>
</svg>
