<svg width="35" height="40" fill="none" xmlns="http://www.w3.org/2000/svg"><g fill="#011C40"><path d="M8.405 16.396l8.812-6.46a.6.6 0 01.654 0l8.854 6.46V8.688c.049-1.057-.75-1.954-1.785-2.003l-.047-.002H10.238c-1.036.024-1.857.9-1.834 1.958l.001.047v7.708zM19.746 0h-4.361v5.347h4.361V0z"/><path d="M28.296 30.164L31 21.03l-3.795-2.718-.262-.134-8.941-6.37v18.801h-.48l-.83-.044V11.807L4 21.03l2.792 9.09 1.612 1.87h2.754s5.089.007 6.364 0c1.298.022 3.603 0 3.603 0h5.688l1.483-1.826z"/></g><defs><filter id="filter0_d" x="0" y="0" width="35" height="40" filterUnits="userSpaceOnUse" color-interpolation-filters="sRGB"><feFlood flood-opacity="0" result="BackgroundImageFix"/><feColorMatrix in="SourceAlpha" values="0 0 0 0 0 0 0 0 0 0 0 0 0 0 0 0 0 0 127 0"/><feOffset dy="4"/><feGaussianBlur stdDeviation="2"/><feColorMatrix values="0 0 0 0 0 0 0 0 0 0 0 0 0 0 0 0 0 0 0.25 0"/><feBlend in2="BackgroundImageFix" result="effect1_dropShadow"/><feBlend in="SourceGraphic" in2="effect1_dropShadow" result="shape"/></filter></defs></svg>
